<svg xmlns="http://www.w3.org/2000/svg" width="1200" height="750" viewBox="0 0 1200 750" role="img" aria-label="MTVerse Modular preview">
  <defs>
    <linearGradient id="bg" x1="0" x2="1" y1="0" y2="1">
      <stop offset="0" stop-color="#f8fafc"/>
      <stop offset="0.5" stop-color="#eef6ff"/>
      <stop offset="1" stop-color="#f7fee7"/>
    </linearGradient>
  </defs>
  <rect width="1200" height="750" fill="url(#bg)"/>
  <rect x="48" y="44" width="1104" height="662" rx="28" fill="#f8fafc" stroke="#cbd5e1"/>
  <rect x="48" y="44" width="1104" height="86" rx="28" fill="#0f172a"/>
  <circle cx="96" cy="88" r="9" fill="#fb7185"/><circle cx="124" cy="88" r="9" fill="#fbbf24"/><circle cx="152" cy="88" r="9" fill="#34d399"/>
  <text x="194" y="96" fill="#e2e8f0" font-size="24" font-family="Arial, sans-serif" font-weight="700">MTVerse Modular</text>
  <rect x="82" y="164" width="250" height="72" rx="18" fill="#2563eb" opacity="0.95"/>
  <text x="104" y="194" fill="#ffffff" font-size="18" font-family="Arial, sans-serif" font-weight="700">Live dashboard preview</text>
  <text x="104" y="218" fill="#ffffff" font-size="14" font-family="Arial, sans-serif" opacity="0.9">AI SaaS, ecommerce, CRM</text>
  <rect x="370" y="164" width="700" height="72" rx="18" fill="#ffffff" stroke="#dbe4ef"/>
  <rect x="398" y="192" width="170" height="16" rx="8" fill="#2563eb" opacity="0.35"/>
  <rect x="596" y="192" width="120" height="16" rx="8" fill="#cbd5e1"/>
  <rect x="744" y="192" width="250" height="16" rx="8" fill="#cbd5e1"/>
  <g><rect x="74" y="286" width="276" height="112" rx="16" fill="#ffffff" stroke="#dbe4ef"/><text x="94" y="324" fill="#0f172a" font-size="22" font-family="Arial, sans-serif" font-weight="700">AI Pages</text><text x="94" y="356" fill="#64748b" font-size="16" font-family="Arial, sans-serif">7 screens</text><rect x="94" y="370" width="172" height="8" rx="4" fill="#2563eb" opacity="0.75"/></g><g><rect x="406" y="286" width="276" height="112" rx="16" fill="#ffffff" stroke="#dbe4ef"/><text x="426" y="324" fill="#0f172a" font-size="22" font-family="Arial, sans-serif" font-weight="700">Dashboards</text><text x="426" y="356" fill="#64748b" font-size="16" font-family="Arial, sans-serif">9 domains</text><rect x="426" y="370" width="210" height="8" rx="4" fill="#2563eb" opacity="0.75"/></g><g><rect x="738" y="286" width="276" height="112" rx="16" fill="#ffffff" stroke="#dbe4ef"/><text x="758" y="324" fill="#0f172a" font-size="22" font-family="Arial, sans-serif" font-weight="700">CRM</text><text x="758" y="356" fill="#64748b" font-size="16" font-family="Arial, sans-serif">12 modules</text><rect x="758" y="370" width="142" height="8" rx="4" fill="#2563eb" opacity="0.75"/></g><g><rect x="74" y="454" width="276" height="112" rx="16" fill="#ffffff" stroke="#dbe4ef"/><text x="94" y="492" fill="#0f172a" font-size="22" font-family="Arial, sans-serif" font-weight="700">Ecommerce</text><text x="94" y="524" fill="#64748b" font-size="16" font-family="Arial, sans-serif">9 flows</text><rect x="94" y="538" width="184" height="8" rx="4" fill="#2563eb" opacity="0.75"/></g><g><rect x="406" y="454" width="276" height="112" rx="16" fill="#ffffff" stroke="#dbe4ef"/><text x="426" y="492" fill="#0f172a" font-size="22" font-family="Arial, sans-serif" font-weight="700">Charts</text><text x="426" y="524" fill="#64748b" font-size="16" font-family="Arial, sans-serif">Lazy loaded</text><rect x="426" y="538" width="160" height="8" rx="4" fill="#2563eb" opacity="0.75"/></g><g><rect x="738" y="454" width="276" height="112" rx="16" fill="#ffffff" stroke="#dbe4ef"/><text x="758" y="492" fill="#0f172a" font-size="22" font-family="Arial, sans-serif" font-weight="700">Maps</text><text x="758" y="524" fill="#64748b" font-size="16" font-family="Arial, sans-serif">Geo ready</text><rect x="758" y="538" width="132" height="8" rx="4" fill="#2563eb" opacity="0.75"/></g>
  <rect x="74" y="616" width="996" height="38" rx="19" fill="#e2e8f0"/>
  <rect x="74" y="616" width="684" height="38" rx="19" fill="#2563eb" opacity="0.88"/>
</svg>