<svg width="1200" height="800" viewBox="0 0 1200 800" fill="none" xmlns="http://www.w3.org/2000/svg" role="img" aria-label="Prompt preview placeholder">
  <rect width="1200" height="800" rx="36" fill="#F8FAFC"/>
  <rect x="64" y="64" width="1072" height="672" rx="32" fill="#FFFFFF" stroke="#E2E8F0" stroke-width="2"/>
  <rect x="116" y="116" width="968" height="72" rx="18" fill="#F1F5F9"/>
  <circle cx="156" cy="152" r="12" fill="#465FFF"/>
  <rect x="188" y="136" width="220" height="16" rx="8" fill="#0F172A"/>
  <rect x="188" y="164" width="138" height="12" rx="6" fill="#94A3B8"/>
  <rect x="116" y="232" width="456" height="436" rx="28" fill="#F1F5F9" stroke="#E2E8F0" stroke-width="2"/>
  <rect x="628" y="232" width="456" height="120" rx="24" fill="#F8FAFC" stroke="#E2E8F0" stroke-width="2"/>
  <rect x="628" y="386" width="456" height="120" rx="24" fill="#F8FAFC" stroke="#E2E8F0" stroke-width="2"/>
  <rect x="628" y="540" width="456" height="128" rx="24" fill="#F8FAFC" stroke="#E2E8F0" stroke-width="2"/>
  <circle cx="344" cy="388" r="88" fill="#FFFFFF" stroke="#CBD5E1" stroke-width="2"/>
  <path d="M298 420l54-72 36 46 22-28 54 74H298z" fill="#CBD5E1"/>
  <circle cx="404" cy="342" r="18" fill="#94A3B8"/>
  <rect x="176" y="552" width="216" height="18" rx="9" fill="#0F172A"/>
  <rect x="176" y="590" width="312" height="14" rx="7" fill="#94A3B8"/>
  <rect x="680" y="274" width="184" height="16" rx="8" fill="#0F172A"/>
  <rect x="680" y="306" width="308" height="12" rx="6" fill="#94A3B8"/>
  <rect x="680" y="428" width="220" height="16" rx="8" fill="#0F172A"/>
  <rect x="680" y="460" width="276" height="12" rx="6" fill="#94A3B8"/>
  <rect x="680" y="584" width="156" height="16" rx="8" fill="#0F172A"/>
  <rect x="680" y="618" width="336" height="12" rx="6" fill="#94A3B8"/>
  <rect x="948" y="132" width="92" height="40" rx="12" fill="#465FFF"/>
  <path d="M984 144h20v20h-20z" fill="#FFFFFF"/>
</svg>
